<svg width="118" height="121" viewBox="0 0 118 121" fill="none" xmlns="http://www.w3.org/2000/svg">
<g id="Tiktok logo" clip-path="url(#clip0_3602_16058)">
<path id="Vector" d="M16.2583 99.6548L16.5997 100.619C16.556 100.508 16.4311 100.171 16.2583 99.6548ZM29.77 77.8092C30.3696 72.6293 32.4057 69.7292 36.2427 66.7562C41.7327 62.7298 48.5905 65.0074 48.5905 65.0074V51.4957C50.2578 51.4513 51.9256 51.5544 53.5747 51.8039V69.1921C53.5747 69.1921 46.7189 66.9144 41.2289 70.943C37.394 73.9139 35.3537 76.8161 34.7562 81.9959C34.7374 84.8086 35.2433 88.4852 37.573 91.6643C36.997 91.3562 36.4099 91.0051 35.8117 90.6109C30.6798 87.0154 29.745 81.6211 29.77 77.8092ZM81.8909 26.5127C78.1143 22.1948 76.6861 17.8352 76.1698 14.7727H80.9207C80.9207 14.7727 79.9734 22.8027 86.8771 30.6994L86.9729 30.8056C85.1122 29.5844 83.4059 28.143 81.8909 26.5127ZM104.777 38.7544V55.7928C104.777 55.7928 98.7149 55.5451 94.2284 54.3542C87.9639 52.6887 83.9374 50.1342 83.9374 50.1342C83.9374 50.1342 81.156 48.3125 80.9311 48.1855V83.37C80.9311 85.329 80.4169 90.2216 78.8492 94.3021C76.8027 99.6402 73.6444 103.144 73.0635 103.86C73.0635 103.86 69.2224 108.597 62.4457 111.786C56.3374 114.663 50.9743 114.59 49.3713 114.663C49.3713 114.663 40.1005 115.046 31.7582 109.39C29.9543 108.143 28.2703 106.731 26.7283 105.172L26.7699 105.203C35.1143 110.86 44.383 110.477 44.383 110.477C45.9881 110.404 51.3512 110.477 57.4575 107.599C64.2279 104.41 68.0753 99.6735 68.0753 99.6735C68.6499 98.9573 71.8227 95.4534 73.8609 90.1133C75.4244 86.0348 75.9428 81.1402 75.9428 79.1811V44.0008C76.1677 44.1299 78.9471 45.9516 78.9471 45.9516C78.9471 45.9516 82.9756 48.5082 89.2401 50.1716C93.7287 51.3625 99.7892 51.6102 99.7892 51.6102V38.2589C101.863 38.744 103.63 38.8751 104.777 38.7544Z" fill="#EE1D52"/>
<path id="Vector_2" d="M99.791 38.2589V51.6061C99.791 51.6061 93.7305 51.3583 89.2419 50.1675C82.9774 48.5019 78.9488 45.9474 78.9488 45.9474C78.9488 45.9474 76.1695 44.1257 75.9446 43.9966V79.1853C75.9446 81.1444 75.4304 86.039 73.8627 90.1175C71.8162 95.4576 68.6579 98.9615 68.077 99.6777C68.077 99.6777 64.2338 104.414 57.4592 107.604C51.353 110.481 45.9899 110.408 44.3848 110.481C44.3848 110.481 35.1161 110.864 26.7717 105.207L26.7301 105.176C25.8491 104.286 25.0198 103.346 24.2463 102.361C21.5836 98.974 19.9513 94.9684 19.5412 93.8254C19.5405 93.8205 19.5405 93.8156 19.5412 93.8108C18.8812 91.8246 17.4947 87.055 17.6841 82.4352C18.0193 74.2845 20.7674 69.2816 21.494 68.0283C23.4184 64.6105 25.9212 61.5526 28.8911 58.9907C31.5119 56.7799 34.4825 55.0209 37.681 53.7858C41.1387 52.3357 44.8413 51.5584 48.5903 51.4957V65.0074C48.5903 65.0074 41.7324 62.7381 36.2445 66.7562C32.4075 69.7292 30.3714 72.6293 29.7718 77.8092C29.7468 81.6211 30.6816 87.0154 35.8093 90.613C36.4075 91.0085 36.9946 91.3597 37.5706 91.6664C38.4665 92.8814 39.5568 93.9401 40.7976 94.7997C45.8067 98.1079 50.0039 98.339 55.3711 96.1904C58.9499 94.7539 61.6439 91.5165 62.8931 87.9294C63.6779 85.6892 63.6675 83.4345 63.6675 81.1027V14.7727H76.1591C76.6754 17.8352 78.1036 22.1948 81.8802 26.5127C83.3952 28.143 85.1015 29.5844 86.9622 30.8056C87.5118 31.3989 90.3224 34.3324 93.9304 36.1332C95.796 37.0641 97.7624 37.7773 99.791 38.2589Z" fill="black"/>
<path id="Vector_3" d="M14.5698 89.6761V89.6866L14.8779 90.563C14.8426 90.461 14.7281 90.1508 14.5698 89.6761Z" fill="#69C9D0"/>
<path id="Vector_4" d="M37.6813 53.7859C34.4827 55.0209 31.5122 56.7799 28.8914 58.9907C25.9205 61.5584 23.4183 64.6228 21.4964 68.047C20.7698 69.2962 18.0217 74.3032 17.6865 82.4539C17.497 87.0737 18.8836 91.8434 19.5436 93.8296C19.5429 93.8344 19.5429 93.8393 19.5436 93.8441C19.9599 94.9767 21.5859 98.9823 24.2487 102.38C25.0222 103.365 25.8515 104.305 26.7324 105.195C23.9098 103.243 21.3924 100.882 19.2625 98.1912C16.6226 94.833 14.9946 90.8691 14.5699 89.699C14.5694 89.6907 14.5694 89.6824 14.5699 89.674V89.6595C13.9078 87.6754 12.5171 82.9036 12.7107 78.2776C13.0459 70.1269 15.794 65.124 16.5206 63.8707C18.442 60.446 20.9442 57.3816 23.9156 54.8143C26.5358 52.6028 29.5065 50.8438 32.7055 49.6095C34.7008 48.7817 36.7794 48.1709 38.9054 47.7878C42.1094 47.2286 45.3818 47.1801 48.601 47.6442V51.4958C44.8485 51.5571 41.1422 52.3344 37.6813 53.7859Z" fill="#69C9D0"/>
<path id="Vector_5" d="M76.1695 14.7727H63.678V81.1048C63.678 83.4366 63.678 85.685 62.9035 87.9314C61.6419 91.5165 58.9583 94.7539 55.3815 96.1904C50.0122 98.3473 45.8151 98.1079 40.8081 94.7997C39.5651 93.9439 38.472 92.8887 37.5728 91.6768C41.8386 93.9523 45.6569 93.9128 50.387 92.0141C53.9616 90.5776 56.6494 87.3402 57.9069 83.753C58.6938 81.5129 58.6834 79.2581 58.6834 76.9285V10.5839H75.9322C75.9322 10.5839 75.7385 12.2327 76.1695 14.7727ZM99.791 34.5676V38.2589C97.766 37.7765 95.8031 37.0633 93.9408 36.1332C90.3328 34.3323 87.5222 31.3989 86.9726 30.8056C87.6104 31.2243 88.2722 31.6053 88.9546 31.9465C93.3412 34.1366 97.6612 34.7904 99.791 34.5676Z" fill="#69C9D0"/>
</g>
<defs>
<clipPath id="clip0_3602_16058">
<rect width="117.333" height="120" fill="white" transform="translate(0.333496 0.880005)"/>
</clipPath>
</defs>
</svg>
